HIERARCHY
ROOT Hips
{
	OFFSET -3.958830 18.904000 13.208200
	CHANNELS 6 Xposition Yposition Zposition Zrotation Yrotation Xrotation 
	JOINT LHipJoint
	{
		OFFSET 0.000000 0.000000 0.000000
		CHANNELS 3 Zrotation Yrotation Xrotation
		JOINT LeftUpLeg
		{
			OFFSET 1.800000 -1.400000 0.085000
			CHANNELS 3 Zrotation Yrotation Xrotation
			JOINT LeftLeg
			{
				OFFSET 2.215000 -6.000000 0.000000
				CHANNELS 3 Zrotation Yrotation Xrotation
				JOINT LeftFoot
				{
					OFFSET 2.500000 -6.900000 0.000000
					CHANNELS 3 Zrotation Yrotation Xrotation
					JOINT LeftToeBase
					{
						OFFSET 0.200000 -0.500000 1.950000
						CHANNELS 3 Zrotation Yrotation Xrotation
						End Site
						{
							OFFSET 0.000000 0.000000 0.000000
						}
					}
				}
			}
		}
	}
	JOINT RHipJoint
	{
		OFFSET 0.000000 0.000000 0.000000
		CHANNELS 3 Zrotation Yrotation Xrotation
		JOINT RightUpLeg
		{
			OFFSET -1.800000 -1.400000 0.085000
			CHANNELS 3 Zrotation Yrotation Xrotation
			JOINT RightLeg
			{
				OFFSET -2.215000 -6.000000 0.000000
				CHANNELS 3 Zrotation Yrotation Xrotation
				JOINT RightFoot
				{
					OFFSET -2.500000 -6.900000 0.000000
					CHANNELS 3 Zrotation Yrotation Xrotation
					JOINT RightToeBase
					{
						OFFSET -0.200000 -0.500000 1.950000
						CHANNELS 3 Zrotation Yrotation Xrotation
						End Site
						{
							OFFSET 0.000000 0.000000 0.000000
						}
					}
				}
			}
		}
	}
	JOINT LowerBack
	{
		OFFSET 0.000000 0.000000 0.000000
		CHANNELS 3 Zrotation Yrotation Xrotation
		JOINT Spine
		{
			OFFSET -0.087000 1.940000 -0.288900
			CHANNELS 3 Zrotation Yrotation Xrotation
			JOINT Spine1
			{
				OFFSET 0.000000 1.950000 0.060000
				CHANNELS 3 Zrotation Yrotation Xrotation
				JOINT Neck
				{
					OFFSET 0.000000 0.000000 0.000000
					CHANNELS 3 Zrotation Yrotation Xrotation
					JOINT Neck1
					{
						OFFSET 0.000000 1.600000 0.340000
						CHANNELS 3 Zrotation Yrotation Xrotation
						JOINT Head
						{
							OFFSET 0.000000 1.667000 -0.240000
							CHANNELS 3 Zrotation Yrotation Xrotation
							End Site
							{
								OFFSET 0.000000 0.000000 0.000000
							}
						}
					}
				}
				JOINT LeftShoulder
				{
					OFFSET 0.000000 0.000000 0.000000
					CHANNELS 3 Zrotation Yrotation Xrotation
					JOINT LeftArm
					{
						OFFSET 2.700000 1.550000 -0.730000
						CHANNELS 3 Zrotation Yrotation Xrotation
						JOINT LeftForeArm
						{
							OFFSET 5.450000 0.000000 0.000000
							CHANNELS 3 Zrotation Yrotation Xrotation
							JOINT LeftHand
							{
								OFFSET 3.450000 0.000000 0.000000
								CHANNELS 3 Zrotation Yrotation Xrotation
								JOINT LeftHandIndex1
								{
									OFFSET 0.750000 0.000000 0.000000
									CHANNELS 3 Zrotation Yrotation Xrotation
									End Site
									{
										OFFSET 0.000000 0.000000 0.000000
									}
								}
							}
						}
					}
				}
				JOINT RightShoulder
				{
					OFFSET 0.000000 0.000000 0.000000
					CHANNELS 3 Zrotation Yrotation Xrotation
					JOINT RightArm
					{
						OFFSET -2.700000 1.550000 -0.730000
						CHANNELS 3 Zrotation Yrotation Xrotation
						JOINT RightForeArm
						{
							OFFSET -5.450000 0.000000 0.000000
							CHANNELS 3 Zrotation Yrotation Xrotation
							JOINT RightHand
							{
								OFFSET -3.450000 0.000000 0.000000
								CHANNELS 3 Zrotation Yrotation Xrotation
								JOINT RightHandIndex1
								{
									OFFSET -0.750000 0.000000 0.000000
									CHANNELS 3 Zrotation Yrotation Xrotation
									End Site
									{
										OFFSET 0.000000 0.000000 0.000000
									}
								}
							}
						}
					}
				}
			}
		}
	}
}
MOTION
Frames: 14
Frame Time: 0.016667
0.601560 16.766070 -4.027440 -2.366494 -6.703210 2.669727 -15.328190 12.706238 2.841882 7.348352 -5.040457 -16.022301 -12.703577 12.566651 35.869234 -0.576988 8.429454 1.860903 0.571630 0.021570 0.219790 18.477205 -8.258537 4.808793 -1.071357 10.460372 -52.391235 -2.484763 -8.955486 56.891573 -1.349098 -8.099359 2.046647 0.134240 0.551960 0.164470 -3.639149 -4.157401 -8.386645 12.039196 -10.039350 19.990775 -2.286809 -7.654105 13.628689 1.413998 -8.106720 -11.252520 -20.010816 9.844899 37.324975 -7.864500 4.520040 -23.721270 -14.253260 -3.756917 4.171774 -12.669435 12.673340 -3.601308 -123.208817 -54.395063 72.058629 -3.801870 3.047383 1.255580 0.203070 -0.106590 0.436290 12.084626 6.702420 7.613666 23.835240 -16.940355 -11.915251 79.971243 54.084994 32.186662 1.184126 -1.541966 -0.624180 0.828950 0.208160 -0.503700 
0.612810 16.738160 -4.064150 -2.940580 -7.240311 2.049515 -15.328091 12.607787 2.840138 8.313304 -5.044238 -15.926967 -13.566560 13.159662 36.176365 -0.471373 8.612579 1.788931 0.581770 0.032540 0.229720 18.496525 -8.095480 4.993602 -1.215444 11.299259 -53.696277 -2.464560 -9.520460 59.933639 -1.511507 -8.663710 1.877429 0.104830 0.509100 0.181210 -3.669302 -4.169182 -8.539259 12.587761 -10.325939 22.371283 -2.439959 -7.618765 12.845105 1.632307 -8.312682 -11.519996 -20.409774 9.886741 37.142709 -8.059340 4.517210 -24.824940 -14.595580 -4.131867 4.301658 -12.508010 13.167067 -3.985870 -123.206117 -54.165649 71.495307 -3.752629 3.082293 1.261390 0.165660 -0.069570 0.437410 12.027812 7.243013 7.847321 24.493335 -16.821406 -12.261276 81.552901 55.127953 33.762151 1.246852 -1.532771 -0.579200 0.788920 0.186650 -0.490700 
0.638770 16.675620 -4.152360 -3.963064 -8.608152 0.608050 -15.354715 12.419613 2.842251 10.094364 -5.076635 -15.875263 -14.941783 14.453520 37.569161 -0.282680 9.102921 1.600755 0.583620 0.044570 0.206390 18.520409 -7.724877 5.348007 -1.041383 13.279475 -56.119879 -3.289762 -10.034475 66.030183 -1.810324 -9.720935 1.564752 0.070770 0.454560 0.186470 -3.677606 -4.276652 -8.788537 13.273794 -10.990986 28.218943 -2.601558 -7.516169 10.648562 1.840111 -9.457030 -11.986964 -22.403628 10.786267 34.673573 -7.145710 4.317080 -27.388060 -15.514938 -4.682160 4.473903 -12.272543 14.219148 -4.755962 -123.095903 -53.953629 70.531357 -3.667847 3.144973 1.274700 0.093730 -0.032170 0.434560 12.653517 8.694945 8.300514 24.786577 -16.493583 -12.655967 85.753977 57.362255 37.882246 1.372422 -1.494069 -0.528790 0.740510 0.175440 -0.463240 
0.667360 16.609150 -4.246710 -4.837960 -9.633775 -1.090278 -15.400624 12.260695 2.862121 11.465102 -5.325783 -16.120164 -15.460839 15.744398 40.302043 -0.050869 9.686621 1.384130 0.597680 0.068780 0.192620 18.527636 -7.375455 5.625370 -0.741917 15.056451 -58.158424 -4.571444 -10.277658 72.063540 -2.094523 -10.725929 1.278995 0.043940 0.390000 0.181910 -3.641267 -4.439464 -8.977344 13.396982 -11.832364 34.526768 -2.551446 -7.622649 7.981489 2.027600 -10.570930 -12.572579 -24.462927 12.010905 31.952111 -5.694050 4.107730 -29.197160 -16.170937 -5.315371 4.844261 -13.344653 15.263673 -5.798815 -121.946346 -54.264824 69.038029 -3.570636 3.220565 1.264850 0.017190 -0.004940 0.432490 13.145528 10.214951 8.759864 25.731176 -15.852821 -13.114066 90.845074 59.704427 43.034806 1.533901 -1.442139 -0.467720 0.675710 0.147790 -0.431280 
0.685450 16.544160 -4.320950 -5.715015 -10.538366 -2.122391 -15.434389 12.038103 2.938355 13.002652 -5.626870 -17.074069 -16.115089 17.175942 43.116743 0.122893 10.364719 1.152107 0.588890 0.071090 0.143920 18.548979 -7.088028 5.813751 -0.252074 16.653845 -59.515265 -5.659311 -10.420553 76.690647 -2.317958 -11.509397 1.082379 0.029620 0.394280 0.185370 -3.656518 -4.454831 -9.124574 13.726796 -12.616640 39.232652 -2.804216 -7.632614 5.428015 2.183806 -11.152918 -12.880315 -25.286780 13.201777 29.580647 -4.948170 4.109460 -30.264530 -16.710892 -6.047020 5.074413 -14.870332 15.520154 -6.652520 -118.701081 -54.514101 65.539942 -3.532569 3.240690 1.268030 -0.004670 -0.003310 0.446900 13.517214 11.359685 8.959035 27.682378 -14.398925 -13.531927 94.685303 61.117500 47.074354 1.629991 -1.354987 -0.452700 0.664510 0.155640 -0.402900 
0.698230 16.485190 -4.348420 -6.638528 -11.677558 -2.140226 -15.457880 11.782284 3.029360 14.774297 -5.620469 -18.179494 -17.159184 18.663728 44.894826 0.250863 10.967940 0.958687 0.587750 0.064740 0.131480 18.582490 -6.830719 5.970694 0.513034 18.320079 -60.346037 -6.521993 -10.371225 79.879094 -2.466547 -12.029397 0.968324 0.031610 0.416710 0.181430 -3.718557 -4.375159 -9.243958 14.691070 -13.220098 41.003426 -3.189815 -7.459801 3.686411 2.251882 -11.632712 -12.955029 -26.187404 14.220507 27.989115 -4.947200 3.975160 -29.928780 -17.340658 -6.496057 5.116862 -17.804145 14.967348 -7.452701 -112.361833 -55.359162 60.203831 -3.544945 3.202197 1.258770 0.002510 -0.019820 0.455970 14.067470 12.140616 8.928346 29.409313 -12.622195 -13.661836 97.610356 62.019253 50.349439 1.695007 -1.265831 -0.457560 0.682730 0.162960 -0.392900 
0.700290 16.451760 -4.340740 -6.931186 -12.794459 -2.999894 -15.460711 11.779195 3.059492 15.648954 -5.264427 -17.560188 -17.770194 19.523154 45.505997 0.334556 11.281961 0.885537 0.539830 0.001320 0.116320 18.579491 -6.820038 5.949532 2.355534 19.195456 -58.054485 -8.191402 -9.070670 81.008589 -2.508119 -12.059555 0.984773 0.000460 0.437070 0.145920 -3.729019 -4.349138 -9.271330 14.876436 -13.370703 42.576495 -3.704865 -7.245235 2.188315 2.489826 -11.796833 -13.269170 -27.160127 14.920967 28.478618 -4.673880 3.635660 -30.064370 -17.578889 -7.226228 5.235295 -21.751264 13.989770 -8.626569 -103.274380 -55.947810 52.566731 -3.538213 3.090431 1.281530 -0.014840 -0.027520 0.445780 13.872992 13.105741 9.133175 32.861595 -10.713565 -14.292242 98.772086 62.436363 51.609661 1.763673 -1.148098 -0.495530 0.736900 0.188160 -0.394430 
0.689500 16.431920 -4.317450 -6.731745 -13.461028 -3.403675 -15.440470 11.912948 3.141565 15.763907 -5.016322 -17.100761 -18.156260 19.876627 45.582284 0.424221 11.365515 0.861784 0.498630 -0.044170 0.075460 18.554224 -7.020511 5.716710 3.679700 18.652049 -54.016464 -8.367962 -8.365930 79.003732 -2.408812 -11.661649 1.107871 -0.046100 0.439120 0.136500 -3.712714 -4.337082 -9.220760 14.912188 -13.184362 42.101530 -4.115668 -7.005913 1.114145 2.751432 -11.573309 -13.960728 -28.030861 15.912957 30.773034 -3.560510 3.643060 -27.747810 -17.196966 -8.414643 5.609958 -27.138695 12.456322 -10.089418 -88.725472 -55.757189 41.254208 -3.501588 3.049669 1.259780 -0.019460 -0.041590 0.433070 13.023970 14.336619 9.650301 37.657344 -8.998404 -15.089649 98.504763 62.868137 51.411058 1.834415 -1.097533 -0.475270 0.711810 0.206010 -0.379280 
0.656930 16.428920 -4.270900 -5.400855 -13.452345 -3.256031 -15.413888 12.134431 3.217943 14.435944 -4.907428 -16.894122 -18.177448 19.555980 45.012559 0.398269 11.241534 0.907028 0.483890 -0.065640 0.041630 18.514473 -7.357943 5.375782 4.416773 17.161594 -49.892397 -9.180376 -6.788042 75.325204 -2.232242 -10.967035 1.285582 -0.053590 0.470580 0.158170 -3.657942 -4.350040 -9.095807 13.709953 -12.215932 39.579209 -4.096521 -6.894942 0.849469 2.554070 -11.324827 -13.951327 -28.010809 16.225056 31.949116 -2.614230 3.485210 -26.192090 -17.000300 -8.756811 5.438867 -31.901128 10.199135 -10.977248 -73.962024 -53.459606 30.120193 -3.486812 3.007180 1.259690 -0.000160 -0.050570 0.441100 13.183988 14.595202 9.667137 41.647007 -7.063307 -15.157048 97.771622 62.650154 50.473814 1.838034 -1.107421 -0.476400 0.709070 0.229390 -0.369300 
0.612010 16.430340 -4.213980 -3.672030 -14.138541 -1.759706 -15.405237 12.265628 3.277022 12.597838 -4.639524 -17.605165 -18.347045 19.147991 43.729549 0.274796 11.047865 0.985457 0.434510 -0.124740 -0.008590 18.485418 -7.590910 5.147341 4.409727 16.160854 -47.420628 -9.963706 -5.096263 71.248662 -1.991368 -10.228474 1.492646 -0.037770 0.573340 0.147310 -3.612615 -4.340024 -8.981855 12.222500 -10.562754 34.760087 -3.881554 -6.357520 1.251966 1.985665 -11.178020 -13.281163 -27.178110 16.311480 31.254424 -1.832210 3.587480 -23.716600 -16.296518 -7.822110 4.731279 -37.653786 6.905137 -11.004077 -57.410180 -48.635315 18.679270 -3.572234 2.875224 1.239810 0.076790 -0.124430 0.437870 13.477330 13.721788 9.130039 44.801158 -4.691087 -14.089734 96.062247 61.784891 48.712635 1.770332 -1.139258 -0.544320 0.770450 0.292020 -0.377200 
0.569610 16.471430 -4.149000 -2.430247 -14.302457 -0.349901 -15.397557 12.496331 3.330040 11.105837 -4.315552 -18.023842 -18.230375 18.367074 41.886911 0.274552 10.575853 1.156099 0.456160 -0.071560 -0.036080 18.435224 -7.881377 4.843223 4.161521 14.709202 -44.686840 -10.010236 -4.096414 66.233612 -1.738709 -9.350991 1.754171 -0.024840 0.606560 0.158640 -3.515826 -4.419330 -8.831411 11.106267 -9.278960 29.764962 -3.178522 -5.928138 1.726045 1.600175 -11.087565 -13.124548 -27.213812 16.516685 31.617726 -0.225460 3.492480 -19.776840 -15.911600 -7.468912 4.532846 -44.444367 3.859208 -10.858802 -41.400979 -42.377523 9.440127 -3.582516 2.845068 1.136220 0.118490 -0.151620 0.476340 13.829772 13.601845 9.010029 47.559236 -3.098436 -13.244647 93.712020 61.448807 46.683718 1.789273 -1.248014 -0.486030 0.726130 0.249350 -0.323450 
0.528960 16.547810 -4.089400 -1.762240 -14.090523 1.253490 -15.346186 12.614770 3.321100 9.828681 -4.046085 -18.655798 -17.571910 17.325994 40.118839 0.156988 10.102929 1.329293 0.441600 -0.080080 -0.088570 18.443369 -8.193977 4.583684 3.192773 13.441545 -42.951990 -8.519744 -4.327603 61.218076 -1.466919 -8.523254 2.012831 -0.006500 0.691400 0.162090 -3.583564 -4.224085 -8.613701 11.305293 -8.644423 24.746257 -3.657705 -5.712106 2.364503 1.211024 -11.107881 -12.526781 -26.709198 16.312627 30.750290 0.994280 3.198350 -16.707710 -15.587150 -6.873882 4.105889 -50.112426 0.918883 -9.639816 -27.883174 -34.969491 3.304890 -3.668463 2.747875 1.066870 0.190170 -0.218460 0.504690 14.080284 13.059269 8.524015 51.000672 -0.866756 -12.158884 86.339696 61.113137 41.415265 1.721378 -1.347650 -0.496990 0.735350 0.260770 -0.297530 
0.488490 16.654820 -4.033460 -1.258638 -13.167095 2.142765 -15.292021 12.768036 3.303856 8.737144 -3.923293 -19.125384 -16.236154 16.218163 39.176040 0.031840 9.702182 1.495418 0.421580 -0.093970 -0.150060 18.447060 -8.546504 4.268042 1.976090 11.959344 -40.788786 -6.259221 -5.105081 56.395063 -1.219376 -7.776814 2.251248 0.019860 0.790480 0.149680 -3.644466 -4.037178 -8.359485 11.527245 -8.277835 21.054948 -4.074742 -5.655013 2.442656 0.810699 -11.208998 -11.800286 -26.366592 16.062880 29.676543 2.264570 2.671190 -14.007580 -15.748506 -6.378796 3.612748 -55.303269 -1.696085 -7.685049 -16.178231 -26.957542 -0.385672 -3.764293 2.633459 1.012520 0.255650 -0.291040 0.542200 14.844601 12.587237 7.909118 53.617228 1.196412 -11.391553 75.198982 59.536161 33.622429 1.597476 -1.459011 -0.533990 0.770550 0.273390 -0.270950 
0.430300 16.769760 -4.004710 -1.157014 -12.398377 3.594155 -15.282040 12.716708 3.309696 8.244131 -3.985277 -21.014512 -15.074430 15.623188 39.156605 -0.066375 9.581377 1.568459 0.334060 -0.199330 -0.220880 18.461474 -8.654664 4.167017 1.430548 11.578262 -40.283637 -4.612196 -5.531568 53.281964 -1.017135 -7.342221 2.399756 0.007700 0.931560 0.156680 -3.686257 -3.814869 -8.216948 11.415174 -7.602401 17.514940 -4.235166 -5.302634 2.517491 0.526124 -10.746153 -10.728655 -23.987887 15.280098 28.340790 2.180110 2.763920 -10.550160 -15.794892 -5.815445 3.032854 -59.556716 -3.546513 -5.413013 -7.644067 -19.304738 -1.971759 -3.965224 2.530941 0.931430 0.375980 -0.404260 0.538070 15.213601 11.791670 6.976673 56.517863 3.563401 -10.795016 62.120244 55.446045 24.442572 1.459970 -1.507525 -0.593100 0.802330 0.338990 -0.263090 
